<svg width="50" height="50" viewBox="0 0 50 50" fill="none" xmlns="http://www.w3.org/2000/svg">
<circle cx="25" cy="25" r="25" fill="white"/>
<path d="M20.9722 18.4495C20.9722 21.2752 18.6186 16.9642 15.4898 16.9642C12.3609 16.9642 10.5555 21.2752 10.5555 18.4495C10.5555 15.6239 13.0919 13.3333 16.2207 13.3333C19.3496 13.3333 20.9722 15.6239 20.9722 18.4495Z" fill="black"/>
<path d="M15.7638 22.1059C15.7638 19.2802 18.1174 23.5913 21.2462 23.5913C24.375 23.5913 26.1804 19.2802 26.1804 22.1059C26.1804 24.9315 23.644 27.2222 20.5152 27.2222C17.3864 27.2222 15.7638 24.9315 15.7638 22.1059Z" fill="black"/>
<path d="M33.1249 18.4495C33.1249 21.2752 30.7712 16.9642 27.6424 16.9642C24.5136 16.9642 22.7082 21.2752 22.7082 18.4495C22.7082 15.6239 25.2446 13.3333 28.3734 13.3333C31.5022 13.3333 33.1249 15.6239 33.1249 18.4495Z" fill="black"/>
</svg>
